<svg width="20" height="20" viewBox="0 0 20 20" fill="none" xmlns="http://www.w3.org/2000/svg">
<g clip-path="url(#clip0_4295_182)">
<path d="M17.8051 19.987H2.19446C1.78552 19.987 1.4541 19.6556 1.4541 19.2467V7.30957H18.5456V19.2467C18.5456 19.6556 18.2141 19.987 17.8051 19.987Z" fill="#FFC73B"/>
<path d="M1.4541 7.30957H18.5456V9.79355H1.4541V7.30957Z" fill="#EFB025"/>
<path d="M20 4.71994V7.79733C20 8.12601 19.7333 8.39227 19.4046 8.39227H0.59494C0.266266 8.39227 0 8.12601 0 7.79733V4.71994C0 4.39127 0.266266 4.125 0.59494 4.125H19.4046C19.7333 4.125 20 4.39127 20 4.71994Z" fill="#FFC73B"/>
<path d="M9.31998 5.53918C9.19012 5.6904 9.06271 5.84375 8.93835 5.99878C8.47494 6.57541 8.05075 7.17966 7.6673 7.80679C7.54935 7.99966 7.43552 8.19452 7.32504 8.39166H3.2688C3.50577 7.85394 3.76562 7.32614 4.04715 6.81024C4.55771 5.87427 5.14029 4.97614 5.79123 4.12439C5.94672 3.92099 6.10587 3.72003 6.26898 3.52213C6.36664 3.4028 6.46597 3.28516 6.56668 3.16797C6.93686 3.48688 7.30673 3.80548 7.67706 4.12439C7.73444 4.17352 7.79181 4.22327 7.84903 4.27255C8.28604 4.64883 8.72305 5.02496 9.15991 5.4017C9.21347 5.44717 9.26657 5.49341 9.31998 5.53918Z" fill="#EFB025"/>
<path d="M15.3722 8.39166H11.3156C11.2056 8.19452 11.0913 7.99966 10.9734 7.80679C10.5899 7.17966 10.1653 6.57541 9.7023 5.99878C9.57748 5.84375 9.45007 5.6904 9.32007 5.53918C9.37363 5.49341 9.42673 5.44748 9.48029 5.4017C9.9176 5.02496 10.3546 4.64838 10.7915 4.27255C10.8488 4.22327 10.9062 4.17352 10.9636 4.12439C11.3338 3.80548 11.7041 3.48688 12.074 3.16797C12.1747 3.28485 12.274 3.4028 12.3717 3.52182C12.5351 3.72003 12.6944 3.92099 12.8494 4.12439C13.5004 4.97614 14.0829 5.87427 14.5938 6.81024C14.8753 7.32614 15.1352 7.85394 15.3722 8.39166Z" fill="#EFB025"/>
<path d="M9.9997 5.54031C9.86969 5.69138 9.74228 5.84473 9.61792 5.99976C9.15466 6.57639 8.73032 7.18063 8.34686 7.80792C7.12952 9.79782 6.32095 12.0207 5.97992 14.3474C5.46738 13.6676 4.99435 12.9321 4.56879 12.1457C3.82019 12.634 3.08853 13.1924 2.38403 13.8208C2.74582 11.3528 3.54294 8.98071 4.72687 6.81122C5.35919 5.65186 6.1023 4.55032 6.94855 3.5231C7.0462 3.40378 7.14554 3.28629 7.24625 3.16895C7.6738 3.53714 8.10104 3.90533 8.52875 4.27353C8.96561 4.64981 9.40262 5.02594 9.83963 5.40268C9.89304 5.44815 9.94614 5.49439 9.9997 5.54031Z" fill="#FF4440"/>
<path d="M17.6157 13.8208C16.9112 13.1924 16.1796 12.634 15.431 12.1457C15.0054 12.9321 14.5324 13.6676 14.0198 14.3474C13.6788 12.0207 12.8704 9.79782 11.6529 7.80792C11.2694 7.18063 10.8448 6.57639 10.3818 5.99976C10.257 5.84473 10.1296 5.69138 9.99976 5.54031C10.0532 5.49439 10.1063 5.44846 10.1598 5.40268C10.5971 5.02594 11.0341 4.64935 11.4712 4.27353C11.8987 3.90488 12.3264 3.53714 12.7535 3.16895C12.8542 3.28583 12.9536 3.40378 13.0512 3.5228C13.8976 4.55002 14.6407 5.65155 15.2733 6.81122C16.457 8.98071 17.2539 11.3528 17.6157 13.8208Z" fill="#FF4440"/>
<path d="M8.40747 5.54004H11.5921V8.39221H8.40747V5.54004Z" fill="#FF4440"/>
<path d="M15.2733 6.81088L11.6529 7.80759C11.2694 7.1803 10.8448 6.57605 10.3818 5.99942L10.1598 5.40234L9.99976 4.97174L11.4712 4.27319L13.0512 3.52246C13.8976 4.54968 14.6407 5.65121 15.2733 6.81088Z" fill="#EA2F2F"/>
<path d="M9.99963 4.97144L9.83957 5.40204L9.61786 5.99911C9.1546 6.57574 8.73026 7.17999 8.3468 7.80728L4.72681 6.81058C5.35913 5.65121 6.10223 4.54968 6.94849 3.52246L8.52869 4.27289L9.99963 4.97144Z" fill="#EA2F2F"/>
<path d="M15.7778 0.138366L9.99976 2.88235L11.1097 5.86743L17.277 4.16989C18.0836 3.94788 18.5267 3.08224 18.2351 2.2981L17.726 0.929382C17.4346 0.145233 16.5336 -0.220521 15.7778 0.138366Z" fill="#FF4440"/>
<path d="M4.22187 0.138366L9.99991 2.88235L8.88999 5.86743L2.72285 4.16989C1.91627 3.94788 1.47315 3.08224 1.76475 2.2981L2.27363 0.929382C2.56522 0.145233 3.4661 -0.220521 4.22187 0.138366Z" fill="#FF4440"/>
<path d="M11.3796 4.08231C11.2746 4.08231 11.1716 4.03043 11.111 3.93537C11.0163 3.78721 11.0595 3.59037 11.2076 3.49561C11.2514 3.46769 12.2921 2.80546 13.4868 2.32221C15.2092 1.6255 16.3594 1.66288 16.9051 2.4333C17.0069 2.57688 16.9729 2.7757 16.8293 2.87733C16.6857 2.97895 16.487 2.94508 16.3854 2.80149C15.6456 1.75718 12.5699 3.38102 11.5508 4.03227C11.4977 4.06614 11.4383 4.08231 11.3796 4.08231Z" fill="#EA2F2F"/>
<path d="M8.58883 4.08231C8.53008 4.08231 8.47073 4.06614 8.41762 4.03227C7.39849 3.38102 4.32278 1.75718 3.58303 2.80149C3.48125 2.94508 3.28258 2.97895 3.139 2.87733C2.99557 2.77555 2.96154 2.57688 3.06332 2.4333C3.60897 1.66288 4.75903 1.6255 6.48159 2.32221C7.67635 2.80531 8.717 3.46769 8.7608 3.49561C8.90896 3.59037 8.95214 3.78721 8.85754 3.93537C8.79665 4.03043 8.69381 4.08231 8.58883 4.08231Z" fill="#EA2F2F"/>
<path d="M10.9059 1.85645H9.09378C8.59787 1.85645 8.1958 2.25851 8.1958 2.75458V5.38718C8.1958 5.88324 8.59787 6.28531 9.09378 6.28531H10.9059C11.4018 6.28531 11.8039 5.88324 11.8039 5.38718V2.75458C11.8039 2.25851 11.4018 1.85645 10.9059 1.85645Z" fill="#EA2F2F"/>
<path d="M8.40747 8.3916H11.5921V19.9863H8.40747V8.3916Z" fill="#FF4440"/>
<path d="M8.40747 8.3916H11.5921V9.79282H8.40747V8.3916Z" fill="#EA2F2F"/>
</g>
<defs>
<clipPath id="clip0_4295_182">
<rect width="20" height="20" fill="white"/>
</clipPath>
</defs>
</svg>
